#N canvas 1155 268 220 135 10;
#X obj 31 15 inlet;
#X obj 31 88 outlet;
#X obj 132 16 loadbang;
#X obj 31 37 *;
#X obj 132 40 f \$1;
#X obj 132 62 - \$2;
#X obj 31 59 + \$2;
#X connect 0 0 3 0;
#X connect 2 0 4 0;
#X connect 3 0 6 0;
#X connect 4 0 5 0;
#X connect 5 0 3 1;
#X connect 6 0 1 0;
