#N canvas 516 163 659 359 10;
#X obj 24 288 cnv 15 400 30 empty empty OUTPUTS 20 12 0 14 -99865 -262144
0;
#X obj 24 101 cnv 15 400 30 empty empty CONTROLS 20 12 0 14 -99865
-262144 0;
#X obj 24 230 cnv 15 400 30 empty empty INPUTS 20 12 0 14 -99865 -262144
0;
#X obj 20 17 cnv 15 400 30 empty empty FTOINTWRAP 20 12 0 14 -99865
-262144 0;
#X text 25 136 none/;
#X obj 24 160 cnv 15 400 30 empty empty PARAMETERS 20 12 0 14 -99865
-262144 0;
#X obj 437 64 vp-ftointwrap;
#X floatatom 437 38 5 0 0 2 Hold_Shift+Click_and_drag_up/down - -,
f 5;
#X floatatom 437 96 5 0 0 3 Int - -, f 5;
#X floatatom 511 96 5 0 0 3 Remainder - -, f 5;
#X text 24 49 Wraps float values to integer value and remainder.;
#X text 25 196 none/;
#X text 23 264 IN - float value;
#X text 24 326 OUT - wrapped integer value \, fractional remainder
;
#X connect 6 0 8 0;
#X connect 6 1 9 0;
#X connect 7 0 6 0;
