#N canvas 0 22 669 380 10;
#X obj 24 308 cnv 15 400 30 empty empty OUTPUTS 20 12 0 14 -99865 -262144
0;
#X obj 24 111 cnv 15 400 30 empty empty CONTROLS 20 12 0 14 -99865
-262144 0;
#X obj 24 240 cnv 15 400 30 empty empty INPUTS 20 12 0 14 -99865 -262144
0;
#X obj 20 17 cnv 15 400 30 empty empty NORMTORANGE 20 12 0 14 -99865
-262144 0;
#X text 25 146 none/;
#X obj 24 170 cnv 15 400 30 empty empty PARAMETERS 20 12 0 14 -99865
-262144 0;
#X obj 441 153 vp-normtorange 0.3 0;
#X obj 444 31 hsl 128 15 0 1 0 0 empty empty Range_from_0_to_1 -2 -8
0 10 -262144 -1 -1 0 1;
#X floatatom 440 181 5 0 0 3 output - -, f 5;
#X msg 558 120 0.2;
#X msg 454 60 reset;
#X msg 499 120 10;
#X text 496 102 set high;
#X text 556 102 set low;
#X text 492 60 reset bounds;
#X text 25 206 1: int: high bound \, 2: int: low bound;
#X text 23 274 IN - 1: int: set high bound \, 2: int: set low bound
;
#X text 24 346 OUT - 1: float: transformed output;
#X text 24 49 Transform normalised input range inputs between 0..1
(e.g. from slider) to any range defined by the parmeters or messages
sent to inlets 2 \, 3;
#X connect 6 0 8 0;
#X connect 7 0 6 0;
#X connect 9 0 6 2;
#X connect 10 0 6 0;
#X connect 11 0 6 1;
