#N canvas 255 169 525 330 10;
#X obj 17 14 inlet;
#X obj 148 14 inlet;
#X obj 285 14 inlet;
#X obj 56 299 outlet;
#X obj 268 297 outlet;
#X obj 17 57 f 1;
#X obj 285 160 i 44100;
#X floatatom 17 79 5 0 0 0 - - -, f 5;
#X floatatom 285 186 5 0 0 0 - - -, f 5;
#X obj 17 98 t f b;
#X obj 56 225 *;
#X obj 148 56 i 1;
#X floatatom 148 78 5 0 0 0 - - -, f 5;
#X obj 268 215 /;
#X obj 148 97 t b f;
#X floatatom 268 237 5 0 0 0 - - -, f 5;
#X floatatom 56 252 10 0 0 0 - - -, f 10;
#X obj 56 271 vp-ftointwrap;
#X obj 268 256 vp-ftointwrap;
#X connect 0 0 5 0;
#X connect 1 0 11 0;
#X connect 2 0 6 0;
#X connect 5 0 7 0;
#X connect 6 0 8 0;
#X connect 7 0 9 0;
#X connect 8 0 10 1;
#X connect 8 0 13 0;
#X connect 9 0 10 0;
#X connect 9 1 6 0;
#X connect 10 0 16 0;
#X connect 11 0 12 0;
#X connect 12 0 14 0;
#X connect 13 0 15 0;
#X connect 14 0 6 0;
#X connect 14 1 13 1;
#X connect 15 0 18 0;
#X connect 16 0 17 0;
#X connect 17 0 3 0;
#X connect 18 0 4 0;
